<svg width="99" height="35" viewBox="0 0 99 35" fill="none" xmlns="http://www.w3.org/2000/svg">
<path d="M40.5171 34.3023V14.3424C40.5171 11.1154 42.788 8.48592 45.8955 8.00784V34.3023H40.5171Z" fill="black"/>
<path d="M45.8955 0H40.5171V5.25888H45.8955V0Z" fill="black"/>
<path d="M0 34.4218V29.0434H30.8362V19.8403H6.45408C2.988 19.8403 0.119509 16.8523 0.119509 13.3863V6.45408C0.119509 2.988 2.988 0 6.45408 0H6.81264H36.2146V5.37841H13.9839C6.81264 5.61745 5.37841 2.3904 5.37841 2.3904V14.4619H29.7605C33.3461 14.4619 36.2146 17.3304 36.2146 20.916V27.8482C36.2146 31.3143 33.3461 34.3023 29.88 34.3023H29.5215H0.119509L0 34.4218Z" fill="black"/>
<path d="M82.9469 0.717119H87.6082V33.5852H83.7835V7.29073L82.3493 9.44208C82.3493 9.44208 78.5246 15.2986 76.9709 18.1671L69.3216 31.6728L61.6723 18.1671C59.999 15.2986 56.2939 8.96401 56.2939 8.96401L54.8596 6.57361V33.5852H51.035V0.717119H55.6963L66.9312 21.1551C67.8873 23.0674 68.4849 25.2187 68.6045 27.3701V28.0872H70.1582V27.3701C70.1582 25.2187 70.8753 23.0674 71.8315 21.1551L83.0664 0.717119M82.4688 0L70.9949 20.7965C69.9192 22.8283 69.3216 25.0992 69.3216 27.3701C69.3216 25.0992 68.724 22.8283 67.6483 20.7965L56.1744 0H50.3179V34.4218H55.6963V9.44208C55.6963 9.44208 59.4014 15.7767 61.0747 18.6451L69.4411 33.2266L77.8075 18.6451C79.4808 15.7767 83.1859 9.92017 83.1859 9.92017V34.4218H88.5643V0H82.7078H82.4688Z" fill="black"/>
<path d="M97.7674 8.96401V33.5852H93.9427V14.3424C93.9427 11.8325 95.4965 9.68113 97.7674 8.96401ZM98.604 8.00784C95.616 8.48592 93.2256 11.2349 93.2256 14.3424V34.3023H98.604V8.00784Z" fill="black"/>
<path d="M97.7674 0.717119V4.54176H93.9427V0.717119H97.7674ZM98.604 0H93.2256V5.25888H98.604V0Z" fill="black"/>
</svg>
